<svg xmlns="http://www.w3.org/2000/svg" viewBox="0 0 476.86 213.94"><defs><style>.cls-1{fill:#82dfe1;}.cls-2,.cls-3,.cls-4,.cls-5{fill:none;stroke-linecap:round;stroke-width:10px;}.cls-2{stroke:#ffd81c;}.cls-2,.cls-3,.cls-4{stroke-miterlimit:10;}.cls-3{stroke:#ff7c53;}.cls-4{stroke:#4089ff;}.cls-5{stroke:#333;stroke-linejoin:round;}</style></defs><title>bicycle</title><g id="Layer_2"><g id="content"><circle cx="405.97" cy="142.12" r="52.71" class="cls-1"/><circle cx="195.78" cy="142.12" r="52.71" class="cls-1"/><path d="M57.97 113.65h48.82" class="cls-2"/><path d="M25.94 140.4h75.4" class="cls-3"/><path d="M5 167.18h101.22" class="cls-4"/><path d="M397.6 76.37a67.2 67.2 0 0 1 7.75-.45 66.5 66.5 0 1 1-66.5 66.5M258.68 55.8l-64.45 86.5 93.3-.4A382.2 382.2 0 0 0 258.8 56a222 222 0 0 0-11.14-21M287.52 141.9s52.16-28.84 70.8-96.27M226.88 32.5h39.43M405.97 142.86l-10.94-9.93L345.4 5H321M355 15.1h55.06l-6.2 35.63h-35.2M259 163.5a66.48 66.48 0 1 1-45.12-85.12" class="cls-5"/></g></g></svg>